:version 1.10
:name ASF
:units
  mass 1
  length 1
  angle deg
:documentation
  ASF file generated by Kaydara
:root
  axis xyz
  order  tx ty tz rx ry rz
  position 0 0 0
  orientation 0 0 0
:bonedata
  begin
    id 1
    name lfemurDummy
    direction 0.61522 -0.761478 0.204097
    length 5.68318
    axis 0 -0 0 xyz
  end
  begin
    id 2
    name lfemur
    direction 0.34202 -0.939693 -5.84747e-008
    length 16.9147
    axis 0 -0 20 xyz
    dof rx ry rz
    limits( -inf , inf )
( -inf , inf )
( -inf , inf )

  end
  begin
    id 3
    name ltibia
    direction 0.34202 -0.939693 1.20839e-009
    length 18.0532
    axis 0 -0 20 xyz
    dof rz ry rx
    limits( -inf , inf )
( -inf , inf )
( -inf , inf )

  end
  begin
    id 4
    name lfoot
    direction 0.0841971 -0.23133 0.969225
    length 5.23822
    axis -90 7.62852e-016 20 xyz
    dof ry rx rz
    limits( -inf , inf )
( -inf , inf )
( -inf , inf )

  end
  begin
    id 5
    name ltoes
    direction 0 0 0
    length 0
    axis 0 0 0 xyz
    dof rz ry rx
    limits( -inf , inf )
( -inf , inf )
( -inf , inf )

  end
  begin
    id 6
    name rfemurDummy
    direction -0.625247 -0.75382 0.202044
    length 5.74091
    axis 0 -0 0 xyz
  end
  begin
    id 7
    name rfemur
    direction -0.34202 -0.939693 -1.47013e-008
    length 16.4922
    axis 0 -0 -20 xyz
    dof rx ry rz
    limits( -inf , inf )
( -inf , inf )
( -inf , inf )

  end
  begin
    id 8
    name rtibia
    direction -0.34202 -0.939693 -7.74345e-010
    length 18.2421
    axis 0 -0 -20 xyz
    dof rz ry rx
    limits( -inf , inf )
( -inf , inf )
( -inf , inf )

  end
  begin
    id 9
    name rfoot
    direction -0.124331 -0.341598 0.931586
    length 5.45787
    axis -90 -7.62852e-016 -20 xyz
    dof ry rx rz
    limits( -inf , inf )
( -inf , inf )
( -inf , inf )

  end
  begin
    id 10
    name rtoes
    direction 0 0 0
    length 0
    axis 0 0 0 xyz
    dof rz ry rx
    limits( -inf , inf )
( -inf , inf )
( -inf , inf )

  end
  begin
    id 11
    name lowerbackDummy
    direction 0 0 0
    length 0
    axis 0 -0 0 xyz
  end
  begin
    id 12
    name lowerback
    direction -0.0218484 0.994884 -0.0986304
    length 4.45607
    axis 0 -0 0 xyz
    dof rx ry rz
    limits( -inf , inf )
( -inf , inf )
( -inf , inf )

  end
  begin
    id 13
    name upperback
    direction -0.00973057 0.999717 -0.0217111
    length 4.47449
    axis 0 -0 0 xyz
    dof rx ry rz
    limits( -inf , inf )
( -inf , inf )
( -inf , inf )

  end
  begin
    id 14
    name thorax
    direction -0.000928171 0.999699 0.0245198
    length 4.50973
    axis 0 -0 0 xyz
    dof rx ry rz
    limits( -inf , inf )
( -inf , inf )
( -inf , inf )

  end
  begin
    id 15
    name rclavicle
    direction -0.9009 0.425937 -0.0834055
    length 7.28587
    axis 0 -0 0 xyz
    dof rx ry rz
    limits( -inf , inf )
( -inf , inf )
( -inf , inf )

  end
  begin
    id 16
    name rhumerus
    direction -1 -2.23604e-007 -1.42637e-007
    length 13.5704
    axis 180 30 90 xyz
    dof rx ry rz
    limits( -inf , inf )
( -inf , inf )
( -inf , inf )

  end
  begin
    id 17
    name rradius
    direction -1 5.68281e-008 -4.4952e-007
    length 8.06782
    axis 180 30 90 xyz
    dof rz ry rx
    limits( -inf , inf )
( -inf , inf )
( -inf , inf )

  end
  begin
    id 18
    name rwrist
    direction -1 1.51393e-007 1.38143e-007
    length 4.03391
    axis -90 -90 0 xyz
    dof rz rx ry
    limits( -inf , inf )
( -inf , inf )
( -inf , inf )

  end
  begin
    id 19
    name rthumb
    direction 0 0 0
    length 0
    axis 0 0 0 xyz
    dof ry rx rz
    limits( -inf , inf )
( -inf , inf )
( -inf , inf )

  end
  begin
    id 20
    name rhand
    direction -1 -3.34077e-007 -5.59631e-007
    length 1.29744
    axis -90 -90 0 xyz
    dof ry rx rz
    limits( -inf , inf )
( -inf , inf )
( -inf , inf )

  end
  begin
    id 21
    name rfingers
    direction 0 0 0
    length 0
    axis 0 0 0 xyz
    dof rz ry rx
    limits( -inf , inf )
( -inf , inf )
( -inf , inf )

  end
  begin
    id 22
    name lclavicle
    direction 0.940017 0.332249 -0.0773232
    length 8.29589
    axis 0 -0 0 xyz
    dof rx ry rz
    limits( -inf , inf )
( -inf , inf )
( -inf , inf )

  end
  begin
    id 23
    name lhumerus
    direction 1 7.41158e-008 -1.44768e-008
    length 12.0042
    axis 180 -30 -90 xyz
    dof rx ry rz
    limits( -inf , inf )
( -inf , inf )
( -inf , inf )

  end
  begin
    id 24
    name lradius
    direction 1 -1.32972e-007 3.10821e-007
    length 8.1902
    axis 180 -30 -90 xyz
    dof rz ry rx
    limits( -inf , inf )
( -inf , inf )
( -inf , inf )

  end
  begin
    id 25
    name lwrist
    direction 1 3.08957e-007 4.01394e-007
    length 4.09509
    axis -90 90 0 xyz
    dof rz rx ry
    limits( -inf , inf )
( -inf , inf )
( -inf , inf )

  end
  begin
    id 26
    name lthumb
    direction 0 0 0
    length 0
    axis 0 0 0 xyz
    dof ry rx rz
    limits( -inf , inf )
( -inf , inf )
( -inf , inf )

  end
  begin
    id 27
    name lhand
    direction 1 -1.64125e-007 -6.99514e-007
    length 1.37229
    axis -90 90 0 xyz
    dof ry rx rz
    limits( -inf , inf )
( -inf , inf )
( -inf , inf )

  end
  begin
    id 28
    name lfingers
    direction 0 0 0
    length 0
    axis 0 0 0 xyz
    dof rz ry rx
    limits( -inf , inf )
( -inf , inf )
( -inf , inf )

  end
  begin
    id 29
    name lowerneck
    direction -0.030798 0.998024 0.0547665
    length 3.93918
    axis 0 -0 0 xyz
    dof rx ry rz
    limits( -inf , inf )
( -inf , inf )
( -inf , inf )

  end
  begin
    id 30
    name upperneck
    direction 0.0531588 0.996611 -0.0627736
    length 3.95491
    axis 0 -0 0 xyz
    dof rx ry rz
    limits( -inf , inf )
( -inf , inf )
( -inf , inf )

  end
  begin
    id 31
    name head
    direction 0 0 0
    length 0
    axis 0 0 0 xyz
    dof rx ry rz
    limits( -inf , inf )
( -inf , inf )
( -inf , inf )

  end
:hierarchy
  begin
    root lfemurDummy rfemurDummy lowerbackDummy
    lfemurDummy lfemur
    lfemur ltibia
    ltibia lfoot
    lfoot ltoes
    rfemurDummy rfemur
    rfemur rtibia
    rtibia rfoot
    rfoot rtoes
    lowerbackDummy lowerback
    lowerback upperback
    upperback thorax
    thorax rclavicle lclavicle lowerneck
    rclavicle rhumerus
    rhumerus rradius
    rradius rwrist
    rwrist rthumb rhand
    rhand rfingers
    lclavicle lhumerus
    lhumerus lradius
    lradius lwrist
    lwrist lthumb lhand
    lhand lfingers
    lowerneck upperneck
    upperneck head
  end

:SAMPLES-PER-SECOND 30
:FULLY-SPECIFIED
:DEGREES
66
root  16.33531165 37.44822224 -9.270666528 30.69099426 -85.58480072 -22.41400146
lowerback  10.03390026 0.2413139939 -1.521160007
upperback  4.932099819 0.007306439802 -0.4885700047
thorax  -0.5049260259 -0.0877161026 0.3504000008
lowerneck  -13.26959991 3.801389933 -1.378890038
upperneck  -1.609619975 5.086709976 1.553460002
head  1.666779995 2.536319971 1.001330018
lclavicle  0 -9.442270133e-015 7.951389973e-016
lhumerus  5.401169777 -11.78559971 81.74720001
lradius  2.656018736e-031 -2.326888161e-031 138.779007
lwrist  -1.059337512e-030 -1.765562519e-031 4.21709013
lhand  -1.496451383e-031 -27.76390076 20.11240005
lfingers  90 7.125020027 -90
lthumb  89.89689403 5.08795885 91.16245106
rclavicle  0 -9.442270133e-015 7.951389973e-016
rhumerus  13.88589954 22.08460045 -81.26429749
rradius  -2.488501264e-031 2.505235617e-031 134.8079987
rwrist  0 1.765562519e-031 -7.041269779
rhand  -7.920061211e-032 -33.2840004 9.303460121
rfingers  -90 -7.125020027 -90
rthumb  -92.93752616 -24.25625642 -97.11982154
rfemur  -10.5770998 10.53629971 15.41259956
rtibia  -0 0 49.0340004
rfoot  -0 -38.58620071 -11.05609989
rtoes  5.373923086 19.29304026 -105.8922705
lfemur  -34.50970078 -0.2623099983 -4.916019917
ltibia  -0 0 62.17620087
lfoot  6.061480629e-032 -24.46190071 -1.17395997
ltoes  -4.250644065 -19.5611806 -102.515957
67
root  16.16444475 37.51422251 -9.100000126 25.78799438 -86.38639832 -17.98500061
lowerback  9.853360176 0.4681819975 -1.732849956
upperback  4.790649891 0.2947350144 -0.6326649785
thorax  -0.5579950213 0.05740100145 0.2916150093
lowerneck  -12.56610012 3.800790071 -1.526579976
upperneck  -0.8979669809 5.136650085 1.195690036
head  1.782570004 2.55960989 0.9105809927
lclavicle  0 -9.442270133e-015 7.951389973e-016
lhumerus  5.906050205 -11.02159977 81.43340302
lradius  2.660116321e-031 -2.322202661e-031 138.8800049
lwrist  -7.062250077e-031 -1.765562519e-031 4.241819859
lhand  -1.496451383e-031 -27.76390076 20.11240005
lfingers  90 7.125020027 -90
lthumb  89.89689403 5.08795885 91.16245106
rclavicle  0 -9.442270133e-015 7.951389973e-016
rhumerus  14.07310009 21.96010017 -81.30259705
rradius  -2.479916734e-031 2.513733683e-031 134.6119995
rwrist  0 -3.531125038e-031 -7.392250061
rhand  -7.920061211e-032 -33.2840004 9.303460121
rfingers  -90 -7.125020027 -90
rthumb  -92.93752616 -24.25625642 -97.11982154
rfemur  -9.75496006 10.94480038 14.59780025
rtibia  -0 0 48.79660034
rfoot  -0 -37.95959854 -11.45359993
rtoes  5.373923086 19.29304026 -105.8922705
lfemur  -32.60469818 0.04306270182 -6.130760193
ltibia  -0 0 61.12009811
lfoot  4.899116386e-032 -25.71549988 0.3139590025
ltoes  -4.250644065 -19.5611806 -102.515957
68
root  15.97617743 37.60577825 -8.923844465 15.67100525 -87.14980316 -8.291000366
lowerback  9.631270409 0.7656959891 -2.04008007
upperback  4.58728981 0.6693220139 -0.8485839963
thorax  -0.6543719769 0.2471269965 0.2043859959
lowerneck  -11.71179962 3.803960085 -1.449259996
upperneck  -0.2239840031 5.155509949 0.871317029
head  1.863469958 2.566210032 0.7857429981
lclavicle  0 -9.442270133e-015 7.951389973e-016
lhumerus  6.396480083 -11.20219994 80.9803009
lradius  2.671916193e-031 -2.308616012e-031 139.1719971
lwrist  -7.062250077e-031 -1.765562519e-031 5.111559868
lhand  -1.496451383e-031 -27.76390076 20.11240005
lfingers  90 7.125020027 -90
lthumb  89.89689403 5.08795885 91.16245106
rclavicle  0 -9.442270133e-015 7.951389973e-016
rhumerus  14.27690029 21.78800011 -80.92980194
rradius  -2.473371198e-031 2.520174389e-031 134.4629974
rwrist  0 -3.531125038e-031 -7.545650005
rhand  -7.920061211e-032 -33.2840004 9.303460121
rfingers  -90 -7.125020027 -90
rthumb  -92.93752616 -24.25625642 -97.11982154
rfemur  -9.07433033 11.29520035 13.56000042
rtibia  -0 0 48.72169876
rfoot  -0 -37.17879868 -11.22469997
rtoes  5.373923086 19.29304026 -105.8922705
lfemur  -30.66430092 0.3246159852 -7.538609982
ltibia  -0 0 59.75970078
lfoot  4.942665995e-032 -26.7446003 1.88203001
ltoes  -4.250644065 -19.5611806 -102.515957
69
root  15.78902297 37.72377855 -8.73491107 9.479995728 -87.68640137 -2.214004517
lowerback  9.120909691 0.9750699997 -1.893509984
upperback  4.270579815 0.9835739732 -0.9385799766
thorax  -0.7045239806 0.4159469903 0.002651609946
lowerneck  -10.78899956 3.870709896 -1.419340014
upperneck  0.4597370028 5.262549877 0.5844929814
head  1.931239963 2.616480112 0.6835319996
lclavicle  0 -9.442270133e-015 7.951389973e-016
lhumerus  6.865839958 -11.63459969 80.35700226
lradius  2.687848354e-031 -2.290047e-031 139.5690002
lwrist  -7.062250077e-031 -1.765562519e-031 5.995419979
lhand  -1.496451383e-031 -27.76390076 20.11240005
lfingers  90 7.125020027 -90
lthumb  89.89689403 5.08795885 91.16245106
rclavicle  0 -9.442270133e-015 7.951389973e-016
rhumerus  14.69069958 21.53689957 -81.07430267
rradius  -2.469277203e-031 2.524185835e-031 134.3699951
rwrist  7.062250077e-031 -0 -7.485370159
rhand  -7.920061211e-032 -33.2840004 9.303460121
rfingers  -90 -7.125020027 -90
rthumb  -92.93752616 -24.25625642 -97.11982154
rfemur  -8.919739723 11.45689964 12.82719994
rtibia  -0 0 48.8132019
rfoot  -0 -36.0401001 -10.9520998
rtoes  5.373923086 19.29304026 -105.8922705
lfemur  -29.1840992 0.5690339804 -8.486209869
ltibia  -0 0 58.27019882
lfoot  4.970228683e-032 -27.36840057 2.185120106
ltoes  -4.250644065 -19.5611806 -102.515957
70
root  15.60879955 37.85999929 -8.517244294 6.31199646 -88.18049622 0.7489929199
lowerback  8.747150421 1.083969951 -1.414090037
upperback  3.926259995 1.187770009 -0.9393380284
thorax  -0.8487560153 0.5329070091 -0.283416003
lowerneck  -9.762439728 3.987829924 -1.593240023
upperneck  1.172430038 5.45539999 0.3630689979
head  1.981029987 2.708760023 0.6376219988
lclavicle  0 -9.442270133e-015 7.951389973e-016
lhumerus  7.209020138 -11.75220013 79.67769623
lradius  2.705236257e-031 -2.269480299e-031 140.0059967
lwrist  -7.062250077e-031 -0 6.654739857
lhand  -1.496451383e-031 -27.76390076 20.11240005
lfingers  90 7.125020027 -90
lthumb  89.89689403 5.08795885 91.16245106
rclavicle  0 -9.442270133e-015 7.951389973e-016
rhumerus  15.17870045 21.50379944 -80.99629974
rradius  -2.469894238e-031 2.523582076e-031 134.3840027
rwrist  7.062250077e-031 -0 -7.586569786
rhand  -7.920061211e-032 -33.2840004 9.303460121
rfingers  -90 -7.125020027 -90
rthumb  -92.93752616 -24.25625642 -97.11982154
rfemur  -8.827460289 11.36830044 12.25529957
rtibia  -0 0 49.05329895
rfoot  -0 -34.34830093 -11.00879955
rtoes  5.373923086 19.29304026 -105.8922705
lfemur  -27.68889999 0.7328979969 -9.190999985
ltibia  -0 0 56.83610153
lfoot  7.475960787e-032 -27.67210007 2.01274991
ltoes  -4.250644065 -19.5611806 -102.515957
71
root  15.43404436 38.00644462 -8.288222035 -6.391998291 -88.73200226 12.99299622
lowerback  8.687789917 1.214550018 -1.161730051
upperback  3.641930103 1.390400052 -0.8990100026
thorax  -1.106050014 0.6424859762 -0.4045599997
lowerneck  -8.810580254 4.097909927 -1.913529992
upperneck  1.985949993 5.644869804 0.2531889975
head  2.069740057 2.797489882 0.6544529796
lclavicle  0 -9.442270133e-015 7.951389973e-016
lhumerus  7.520269871 -11.51449966 79.02469635
lradius  2.723801232e-031 -2.247165077e-031 140.477005
lwrist  -7.062250077e-031 -1.765562519e-031 7.179100037
lhand  -1.496451383e-031 -27.76390076 20.11240005
lfingers  90 7.125020027 -90
lthumb  89.89689403 5.08795885 91.16245106
rclavicle  0 -9.442270133e-015 7.951389973e-016
rhumerus  15.82450008 21.54100037 -80.65039825
rradius  -2.476404403e-031 2.517193927e-031 134.5319977
rwrist  7.062250077e-031 -0 -7.975029945
rhand  -7.920061211e-032 -33.2840004 9.303460121
rfingers  -90 -7.125020027 -90
rthumb  -92.93752616 -24.25625642 -97.11982154
rfemur  -8.609339714 11.34570026 11.49059963
rtibia  -0 0 49.46210098
rfoot  -0 -32.41220093 -10.66349983
rtoes  5.373923086 19.29304026 -105.8922705
lfemur  -25.97039986 0.906373024 -10.05560017
ltibia  -0 0 55.52500153
lfoot  7.478673115e-032 -27.71170044 2.485280037
ltoes  -4.250644065 -19.5611806 -102.515957
